<svg width="307" height="55" viewBox="0 0 307 55" fill="none" xmlns="http://www.w3.org/2000/svg">
<path d="M0 25.4839C1.93058e-05 11.4095 11.4359 1.89895e-06 25.5428 0H83.7105V16.9892H25.5428C20.8405 16.9892 17.0285 20.7924 17.0285 25.4839V55H0V25.4839ZM18.9704 36.8667C18.9704 27.0147 26.9754 19.028 36.8503 19.0279H60.3755L60.3756 36.0172H36.8503C36.3802 36.0172 35.9989 36.3975 35.9989 36.8667C35.999 37.2723 36.3286 37.6012 36.7353 37.6012H306.746V54.5904H36.7352C26.924 54.5904 18.9704 46.6552 18.9704 36.8667ZM139.83 16.9892H110.92C105.089 16.9893 100.362 21.7052 100.362 27.5226V36.0172H83.3338V27.5226C83.3338 12.3223 95.6846 -6.64425e-07 110.92 0H156.858L156.858 36.0172H139.83L139.83 16.9892ZM214.901 16.9892H203.681V36.0172H186.653V16.9892H175.433L175.433 36.0172H158.405L158.405 0H231.929L231.929 36.0172H214.901L214.901 16.9892ZM289.972 27.5226C289.972 21.7052 285.245 16.9893 279.414 16.9892H278.752V36.0172H261.724V16.9892H250.504V36.0172H233.475L233.476 0H279.414C294.649 -6.64425e-07 307 12.3223 307 27.5226V36.0172H289.972V27.5226Z" fill="black"/>
</svg>
