<svg width="3985" height="413" viewBox="0 0 3985 413" fill="none" xmlns="http://www.w3.org/2000/svg">
<path d="M191.389 0.5H610.55V126.798H191.389C155.88 126.798 127.093 155.518 127.093 190.947V411.608H0.5V190.947L0.503906 189.716C1.16798 85.103 86.3746 0.500031 191.389 0.5ZM276.114 143.074H451.886L451.887 269.372H276.114C272.317 269.372 269.235 272.444 269.235 276.237C269.235 279.554 271.931 282.241 275.253 282.241H3982.46V408.539H275.252C202.013 408.539 142.643 349.304 142.643 276.237C142.643 202.696 202.398 143.075 276.114 143.074ZM3778.16 0.5C3892.04 0.500127 3984.36 92.6066 3984.36 206.223V269.372H3857.77V206.223C3857.77 162.357 3822.12 126.798 3778.16 126.798H3772.7V269.372H3646.11V126.798H3561.04V269.372H3434.45L3434.45 0.5H3778.16ZM3421.86 0.5L3421.86 269.372H3295.27L3295.27 127.298V126.798H3210.21V269.372H3083.61V126.798H2998.55V127.298L2998.55 269.372H2871.95L2871.95 0.5H3421.86ZM2515.66 0.5H2859.37L2859.37 269.372H2732.77V126.798H2515.66C2471.69 126.798 2436.05 162.357 2436.05 206.223V269.372H2309.46V206.223C2309.46 93.0505 2401.06 1.21982 2514.32 0.503906L2515.66 0.5Z" fill="black" stroke="black" stroke-linecap="square"/>
</svg>
